<svg width="1568" height="266" viewBox="0 0 1568 266" fill="none" xmlns="http://www.w3.org/2000/svg">
<path d="M4 70L223 70" stroke="black" stroke-width="7" stroke-linecap="round"/>
<path d="M58 235L58 16" stroke="black" stroke-width="7" stroke-linecap="round"/>
<path d="M169 235L169 16" stroke="black" stroke-width="7" stroke-linecap="round"/>
<path d="M4 181L223 181" stroke="black" stroke-width="7" stroke-linecap="round"/>
<path d="M69 110.343H160.028" stroke="black" stroke-width="5" stroke-linecap="round"/>
<path d="M99.3425 171.028V80" stroke="black" stroke-width="5" stroke-linecap="round"/>
<path d="M129.685 171.028V80" stroke="black" stroke-width="5" stroke-linecap="round"/>
<path d="M69 140.685H160.028" stroke="black" stroke-width="5" stroke-linecap="round"/>
<mask id="path-9-inside-1_2_54" fill="white">
<path d="M272.614 48.5455H293.636L343.068 169.284H344.773L394.205 48.5455H415.227V194H398.75V83.4886H397.33L351.875 194H335.966L290.511 83.4886H289.091V194H272.614V48.5455ZM494.009 196.273C483.498 196.273 474.431 193.953 466.808 189.312C459.232 184.625 453.384 178.091 449.265 169.71C445.193 161.282 443.157 151.481 443.157 140.307C443.157 129.133 445.193 119.284 449.265 110.761C453.384 102.191 459.113 95.5152 466.452 90.733C473.839 85.9034 482.456 83.4886 492.305 83.4886C497.987 83.4886 503.597 84.4356 509.137 86.3295C514.677 88.2235 519.719 91.3011 524.265 95.5625C528.81 99.7765 532.433 105.364 535.131 112.324C537.83 119.284 539.18 127.854 539.18 138.034V145.136H455.089V130.648H522.134C522.134 124.492 520.903 119 518.441 114.17C516.026 109.341 512.57 105.529 508.072 102.736C503.621 99.9422 498.365 98.5455 492.305 98.5455C485.629 98.5455 479.852 100.203 474.975 103.517C470.146 106.784 466.429 111.045 463.825 116.301C461.22 121.557 459.918 127.191 459.918 133.205V142.864C459.918 151.102 461.339 158.086 464.18 163.815C467.068 169.497 471.069 173.83 476.183 176.812C481.296 179.748 487.238 181.216 494.009 181.216C498.413 181.216 502.39 180.6 505.941 179.369C509.54 178.091 512.641 176.197 515.245 173.688C517.849 171.131 519.862 167.958 521.282 164.17L537.475 168.716C535.771 174.208 532.906 179.038 528.881 183.205C524.857 187.324 519.885 190.544 513.967 192.864C508.048 195.136 501.396 196.273 494.009 196.273ZM608.711 237.182C600.614 237.182 593.654 236.14 587.83 234.057C582.006 232.021 577.153 229.322 573.271 225.96C569.435 222.646 566.381 219.095 564.109 215.307L577.461 205.932C578.976 207.92 580.894 210.193 583.214 212.75C585.534 215.354 588.706 217.603 592.731 219.497C596.803 221.438 602.129 222.409 608.711 222.409C617.518 222.409 624.786 220.278 630.515 216.017C636.244 211.756 639.109 205.08 639.109 195.989V173.83H637.688C636.457 175.818 634.705 178.28 632.433 181.216C630.207 184.104 626.987 186.685 622.773 188.957C618.607 191.183 612.972 192.295 605.87 192.295C597.063 192.295 589.156 190.212 582.148 186.045C575.188 181.879 569.672 175.818 565.6 167.864C561.576 159.909 559.563 150.25 559.563 138.886C559.563 127.712 561.528 117.982 565.458 109.696C569.388 101.363 574.857 94.9233 581.864 90.3778C588.872 85.785 596.969 83.4886 606.154 83.4886C613.256 83.4886 618.891 84.6723 623.058 87.0398C627.272 89.3598 630.491 92.0114 632.717 94.9943C634.989 97.9299 636.741 100.345 637.972 102.239H639.677V84.9091H655.87V197.125C655.87 206.5 653.739 214.123 649.478 219.994C645.264 225.913 639.582 230.245 632.433 232.991C625.33 235.785 617.423 237.182 608.711 237.182ZM608.143 177.239C614.866 177.239 620.548 175.7 625.188 172.622C629.828 169.545 633.356 165.117 635.771 159.341C638.185 153.564 639.393 146.652 639.393 138.602C639.393 130.742 638.209 123.806 635.842 117.793C633.474 111.779 629.97 107.068 625.33 103.659C620.69 100.25 614.961 98.5455 608.143 98.5455C601.04 98.5455 595.122 100.345 590.387 103.943C585.7 107.542 582.172 112.371 579.805 118.432C577.485 124.492 576.325 131.216 576.325 138.602C576.325 146.178 577.508 152.878 579.876 158.702C582.29 164.478 585.842 169.024 590.529 172.338C595.264 175.605 601.135 177.239 608.143 177.239ZM718.654 196.557C711.741 196.557 705.468 195.255 699.833 192.651C694.199 189.999 689.724 186.188 686.41 181.216C683.095 176.197 681.438 170.136 681.438 163.034C681.438 156.784 682.669 151.718 685.131 147.835C687.594 143.905 690.884 140.828 695.004 138.602C699.123 136.377 703.668 134.72 708.64 133.631C713.659 132.494 718.701 131.595 723.768 130.932C730.397 130.08 735.771 129.44 739.89 129.014C744.057 128.541 747.087 127.759 748.981 126.67C750.922 125.581 751.893 123.687 751.893 120.989V120.42C751.893 113.413 749.975 107.968 746.14 104.085C742.352 100.203 736.599 98.2614 728.881 98.2614C720.879 98.2614 714.606 100.013 710.06 103.517C705.515 107.021 702.319 110.761 700.472 114.739L684.563 109.057C687.404 102.428 691.192 97.267 695.927 93.5739C700.709 89.8333 705.917 87.2292 711.552 85.7614C717.234 84.2462 722.821 83.4886 728.313 83.4886C731.817 83.4886 735.842 83.9148 740.387 84.767C744.98 85.572 749.407 87.2528 753.668 89.8097C757.977 92.3665 761.552 96.2254 764.393 101.386C767.234 106.547 768.654 113.46 768.654 122.125V194H751.893V179.227H751.04C749.904 181.595 748.01 184.128 745.359 186.827C742.707 189.526 739.18 191.822 734.776 193.716C730.373 195.61 724.999 196.557 718.654 196.557ZM721.211 181.5C727.84 181.5 733.427 180.198 737.972 177.594C742.565 174.99 746.022 171.628 748.342 167.509C750.709 163.389 751.893 159.057 751.893 154.511V139.17C751.183 140.023 749.62 140.804 747.205 141.514C744.838 142.177 742.092 142.769 738.967 143.29C735.889 143.763 732.882 144.189 729.947 144.568C727.058 144.9 724.715 145.184 722.915 145.42C718.559 145.989 714.487 146.912 710.7 148.19C706.959 149.421 703.929 151.292 701.609 153.801C699.336 156.263 698.2 159.625 698.2 163.886C698.2 169.71 700.354 174.114 704.663 177.097C709.019 180.032 714.535 181.5 721.211 181.5ZM784.386 64.1705V48.5455H893.477V64.1705H847.738V194H830.124V64.1705H784.386ZM935.646 196.557C928.733 196.557 922.46 195.255 916.825 192.651C911.191 189.999 906.716 186.188 903.402 181.216C900.088 176.197 898.43 170.136 898.43 163.034C898.43 156.784 899.661 151.718 902.124 147.835C904.586 143.905 907.876 140.828 911.996 138.602C916.115 136.377 920.661 134.72 925.632 133.631C930.651 132.494 935.694 131.595 940.76 130.932C947.389 130.08 952.763 129.44 956.882 129.014C961.049 128.541 964.079 127.759 965.973 126.67C967.914 125.581 968.885 123.687 968.885 120.989V120.42C968.885 113.413 966.967 107.968 963.132 104.085C959.344 100.203 953.591 98.2614 945.874 98.2614C937.872 98.2614 931.598 100.013 927.053 103.517C922.507 107.021 919.311 110.761 917.464 114.739L901.555 109.057C904.396 102.428 908.184 97.267 912.919 93.5739C917.701 89.8333 922.91 87.2292 928.544 85.7614C934.226 84.2462 939.813 83.4886 945.305 83.4886C948.809 83.4886 952.834 83.9148 957.379 84.767C961.972 85.572 966.399 87.2528 970.661 89.8097C974.969 92.3665 978.544 96.2254 981.385 101.386C984.226 106.547 985.646 113.46 985.646 122.125V194H968.885V179.227H968.033C966.896 181.595 965.002 184.128 962.351 186.827C959.699 189.526 956.172 191.822 951.768 193.716C947.365 195.61 941.991 196.557 935.646 196.557ZM938.203 181.5C944.832 181.5 950.419 180.198 954.964 177.594C959.557 174.99 963.014 171.628 965.334 167.509C967.701 163.389 968.885 159.057 968.885 154.511V139.17C968.175 140.023 966.612 140.804 964.197 141.514C961.83 142.177 959.084 142.769 955.959 143.29C952.881 143.763 949.875 144.189 946.939 144.568C944.051 144.9 941.707 145.184 939.908 145.42C935.552 145.989 931.48 146.912 927.692 148.19C923.951 149.421 920.921 151.292 918.601 153.801C916.328 156.263 915.192 159.625 915.192 163.886C915.192 169.71 917.346 174.114 921.655 177.097C926.011 180.032 931.527 181.5 938.203 181.5ZM1060.56 196.273C1050.33 196.273 1041.52 193.858 1034.14 189.028C1026.75 184.199 1021.07 177.546 1017.09 169.071C1013.11 160.596 1011.13 150.913 1011.13 140.023C1011.13 128.943 1013.16 119.166 1017.23 110.69C1021.35 102.168 1027.08 95.5152 1034.42 90.733C1041.81 85.9034 1050.42 83.4886 1060.27 83.4886C1067.94 83.4886 1074.86 84.9091 1081.01 87.75C1087.17 90.5909 1092.21 94.5682 1096.14 99.6818C1100.07 104.795 1102.51 110.761 1103.46 117.58H1086.69C1085.42 112.608 1082.57 108.205 1078.17 104.369C1073.82 100.487 1067.94 98.5455 1060.56 98.5455C1054.02 98.5455 1048.29 100.25 1043.37 103.659C1038.49 107.021 1034.68 111.779 1031.94 117.935C1029.24 124.043 1027.89 131.216 1027.89 139.455C1027.89 147.883 1029.21 155.222 1031.86 161.472C1034.56 167.722 1038.35 172.575 1043.23 176.031C1048.15 179.488 1053.93 181.216 1060.56 181.216C1064.91 181.216 1068.87 180.458 1072.42 178.943C1075.97 177.428 1078.98 175.25 1081.44 172.409C1083.9 169.568 1085.65 166.159 1086.69 162.182H1103.46C1102.51 168.621 1100.16 174.421 1096.42 179.582C1092.73 184.696 1087.83 188.768 1081.72 191.798C1075.66 194.781 1068.61 196.273 1060.56 196.273ZM1107.43 64.1705V48.5455H1216.52V64.1705H1170.78V194H1153.17V64.1705H1107.43ZM1269.93 196.273C1260.08 196.273 1251.44 193.929 1244.01 189.241C1236.62 184.554 1230.85 177.996 1226.68 169.568C1222.56 161.14 1220.5 151.292 1220.5 140.023C1220.5 128.659 1222.56 118.74 1226.68 110.264C1230.85 101.789 1236.62 95.2074 1244.01 90.5199C1251.44 85.8324 1260.08 83.4886 1269.93 83.4886C1279.78 83.4886 1288.4 85.8324 1295.78 90.5199C1303.22 95.2074 1309 101.789 1313.11 110.264C1317.28 118.74 1319.36 128.659 1319.36 140.023C1319.36 151.292 1317.28 161.14 1313.11 169.568C1309 177.996 1303.22 184.554 1295.78 189.241C1288.4 193.929 1279.78 196.273 1269.93 196.273ZM1269.93 181.216C1277.41 181.216 1283.57 179.298 1288.4 175.463C1293.23 171.628 1296.8 166.585 1299.12 160.335C1301.44 154.085 1302.6 147.314 1302.6 140.023C1302.6 132.731 1301.44 125.937 1299.12 119.639C1296.8 113.342 1293.23 108.252 1288.4 104.369C1283.57 100.487 1277.41 98.5455 1269.93 98.5455C1262.45 98.5455 1256.3 100.487 1251.47 104.369C1246.64 108.252 1243.06 113.342 1240.74 119.639C1238.42 125.937 1237.26 132.731 1237.26 140.023C1237.26 147.314 1238.42 154.085 1240.74 160.335C1243.06 166.585 1246.64 171.628 1251.47 175.463C1256.3 179.298 1262.45 181.216 1269.93 181.216ZM1390.69 196.273C1380.18 196.273 1371.11 193.953 1363.49 189.312C1355.91 184.625 1350.06 178.091 1345.94 169.71C1341.87 161.282 1339.84 151.481 1339.84 140.307C1339.84 129.133 1341.87 119.284 1345.94 110.761C1350.06 102.191 1355.79 95.5152 1363.13 90.733C1370.52 85.9034 1379.14 83.4886 1388.98 83.4886C1394.67 83.4886 1400.28 84.4356 1405.82 86.3295C1411.36 88.2235 1416.4 91.3011 1420.94 95.5625C1425.49 99.7765 1429.11 105.364 1431.81 112.324C1434.51 119.284 1435.86 127.854 1435.86 138.034V145.136H1351.77V130.648H1418.81C1418.81 124.492 1417.58 119 1415.12 114.17C1412.71 109.341 1409.25 105.529 1404.75 102.736C1400.3 99.9422 1395.04 98.5455 1388.98 98.5455C1382.31 98.5455 1376.53 100.203 1371.65 103.517C1366.83 106.784 1363.11 111.045 1360.5 116.301C1357.9 121.557 1356.6 127.191 1356.6 133.205V142.864C1356.6 151.102 1358.02 158.086 1360.86 163.815C1363.75 169.497 1367.75 173.83 1372.86 176.812C1377.98 179.748 1383.92 181.216 1390.69 181.216C1395.09 181.216 1399.07 180.6 1402.62 179.369C1406.22 178.091 1409.32 176.197 1411.92 173.688C1414.53 171.131 1416.54 167.958 1417.96 164.17L1434.15 168.716C1432.45 174.208 1429.59 179.038 1425.56 183.205C1421.54 187.324 1416.56 190.544 1410.65 192.864C1404.73 195.136 1398.08 196.273 1390.69 196.273Z"/>
</mask>
<path d="M272.614 48.5455H293.636L343.068 169.284H344.773L394.205 48.5455H415.227V194H398.75V83.4886H397.33L351.875 194H335.966L290.511 83.4886H289.091V194H272.614V48.5455ZM494.009 196.273C483.498 196.273 474.431 193.953 466.808 189.312C459.232 184.625 453.384 178.091 449.265 169.71C445.193 161.282 443.157 151.481 443.157 140.307C443.157 129.133 445.193 119.284 449.265 110.761C453.384 102.191 459.113 95.5152 466.452 90.733C473.839 85.9034 482.456 83.4886 492.305 83.4886C497.987 83.4886 503.597 84.4356 509.137 86.3295C514.677 88.2235 519.719 91.3011 524.265 95.5625C528.81 99.7765 532.433 105.364 535.131 112.324C537.83 119.284 539.18 127.854 539.18 138.034V145.136H455.089V130.648H522.134C522.134 124.492 520.903 119 518.441 114.17C516.026 109.341 512.57 105.529 508.072 102.736C503.621 99.9422 498.365 98.5455 492.305 98.5455C485.629 98.5455 479.852 100.203 474.975 103.517C470.146 106.784 466.429 111.045 463.825 116.301C461.22 121.557 459.918 127.191 459.918 133.205V142.864C459.918 151.102 461.339 158.086 464.18 163.815C467.068 169.497 471.069 173.83 476.183 176.812C481.296 179.748 487.238 181.216 494.009 181.216C498.413 181.216 502.39 180.6 505.941 179.369C509.54 178.091 512.641 176.197 515.245 173.688C517.849 171.131 519.862 167.958 521.282 164.17L537.475 168.716C535.771 174.208 532.906 179.038 528.881 183.205C524.857 187.324 519.885 190.544 513.967 192.864C508.048 195.136 501.396 196.273 494.009 196.273ZM608.711 237.182C600.614 237.182 593.654 236.14 587.83 234.057C582.006 232.021 577.153 229.322 573.271 225.96C569.435 222.646 566.381 219.095 564.109 215.307L577.461 205.932C578.976 207.92 580.894 210.193 583.214 212.75C585.534 215.354 588.706 217.603 592.731 219.497C596.803 221.438 602.129 222.409 608.711 222.409C617.518 222.409 624.786 220.278 630.515 216.017C636.244 211.756 639.109 205.08 639.109 195.989V173.83H637.688C636.457 175.818 634.705 178.28 632.433 181.216C630.207 184.104 626.987 186.685 622.773 188.957C618.607 191.183 612.972 192.295 605.87 192.295C597.063 192.295 589.156 190.212 582.148 186.045C575.188 181.879 569.672 175.818 565.6 167.864C561.576 159.909 559.563 150.25 559.563 138.886C559.563 127.712 561.528 117.982 565.458 109.696C569.388 101.363 574.857 94.9233 581.864 90.3778C588.872 85.785 596.969 83.4886 606.154 83.4886C613.256 83.4886 618.891 84.6723 623.058 87.0398C627.272 89.3598 630.491 92.0114 632.717 94.9943C634.989 97.9299 636.741 100.345 637.972 102.239H639.677V84.9091H655.87V197.125C655.87 206.5 653.739 214.123 649.478 219.994C645.264 225.913 639.582 230.245 632.433 232.991C625.33 235.785 617.423 237.182 608.711 237.182ZM608.143 177.239C614.866 177.239 620.548 175.7 625.188 172.622C629.828 169.545 633.356 165.117 635.771 159.341C638.185 153.564 639.393 146.652 639.393 138.602C639.393 130.742 638.209 123.806 635.842 117.793C633.474 111.779 629.97 107.068 625.33 103.659C620.69 100.25 614.961 98.5455 608.143 98.5455C601.04 98.5455 595.122 100.345 590.387 103.943C585.7 107.542 582.172 112.371 579.805 118.432C577.485 124.492 576.325 131.216 576.325 138.602C576.325 146.178 577.508 152.878 579.876 158.702C582.29 164.478 585.842 169.024 590.529 172.338C595.264 175.605 601.135 177.239 608.143 177.239ZM718.654 196.557C711.741 196.557 705.468 195.255 699.833 192.651C694.199 189.999 689.724 186.188 686.41 181.216C683.095 176.197 681.438 170.136 681.438 163.034C681.438 156.784 682.669 151.718 685.131 147.835C687.594 143.905 690.884 140.828 695.004 138.602C699.123 136.377 703.668 134.72 708.64 133.631C713.659 132.494 718.701 131.595 723.768 130.932C730.397 130.08 735.771 129.44 739.89 129.014C744.057 128.541 747.087 127.759 748.981 126.67C750.922 125.581 751.893 123.687 751.893 120.989V120.42C751.893 113.413 749.975 107.968 746.14 104.085C742.352 100.203 736.599 98.2614 728.881 98.2614C720.879 98.2614 714.606 100.013 710.06 103.517C705.515 107.021 702.319 110.761 700.472 114.739L684.563 109.057C687.404 102.428 691.192 97.267 695.927 93.5739C700.709 89.8333 705.917 87.2292 711.552 85.7614C717.234 84.2462 722.821 83.4886 728.313 83.4886C731.817 83.4886 735.842 83.9148 740.387 84.767C744.98 85.572 749.407 87.2528 753.668 89.8097C757.977 92.3665 761.552 96.2254 764.393 101.386C767.234 106.547 768.654 113.46 768.654 122.125V194H751.893V179.227H751.04C749.904 181.595 748.01 184.128 745.359 186.827C742.707 189.526 739.18 191.822 734.776 193.716C730.373 195.61 724.999 196.557 718.654 196.557ZM721.211 181.5C727.84 181.5 733.427 180.198 737.972 177.594C742.565 174.99 746.022 171.628 748.342 167.509C750.709 163.389 751.893 159.057 751.893 154.511V139.17C751.183 140.023 749.62 140.804 747.205 141.514C744.838 142.177 742.092 142.769 738.967 143.29C735.889 143.763 732.882 144.189 729.947 144.568C727.058 144.9 724.715 145.184 722.915 145.42C718.559 145.989 714.487 146.912 710.7 148.19C706.959 149.421 703.929 151.292 701.609 153.801C699.336 156.263 698.2 159.625 698.2 163.886C698.2 169.71 700.354 174.114 704.663 177.097C709.019 180.032 714.535 181.5 721.211 181.5ZM784.386 64.1705V48.5455H893.477V64.1705H847.738V194H830.124V64.1705H784.386ZM935.646 196.557C928.733 196.557 922.46 195.255 916.825 192.651C911.191 189.999 906.716 186.188 903.402 181.216C900.088 176.197 898.43 170.136 898.43 163.034C898.43 156.784 899.661 151.718 902.124 147.835C904.586 143.905 907.876 140.828 911.996 138.602C916.115 136.377 920.661 134.72 925.632 133.631C930.651 132.494 935.694 131.595 940.76 130.932C947.389 130.08 952.763 129.44 956.882 129.014C961.049 128.541 964.079 127.759 965.973 126.67C967.914 125.581 968.885 123.687 968.885 120.989V120.42C968.885 113.413 966.967 107.968 963.132 104.085C959.344 100.203 953.591 98.2614 945.874 98.2614C937.872 98.2614 931.598 100.013 927.053 103.517C922.507 107.021 919.311 110.761 917.464 114.739L901.555 109.057C904.396 102.428 908.184 97.267 912.919 93.5739C917.701 89.8333 922.91 87.2292 928.544 85.7614C934.226 84.2462 939.813 83.4886 945.305 83.4886C948.809 83.4886 952.834 83.9148 957.379 84.767C961.972 85.572 966.399 87.2528 970.661 89.8097C974.969 92.3665 978.544 96.2254 981.385 101.386C984.226 106.547 985.646 113.46 985.646 122.125V194H968.885V179.227H968.033C966.896 181.595 965.002 184.128 962.351 186.827C959.699 189.526 956.172 191.822 951.768 193.716C947.365 195.61 941.991 196.557 935.646 196.557ZM938.203 181.5C944.832 181.5 950.419 180.198 954.964 177.594C959.557 174.99 963.014 171.628 965.334 167.509C967.701 163.389 968.885 159.057 968.885 154.511V139.17C968.175 140.023 966.612 140.804 964.197 141.514C961.83 142.177 959.084 142.769 955.959 143.29C952.881 143.763 949.875 144.189 946.939 144.568C944.051 144.9 941.707 145.184 939.908 145.42C935.552 145.989 931.48 146.912 927.692 148.19C923.951 149.421 920.921 151.292 918.601 153.801C916.328 156.263 915.192 159.625 915.192 163.886C915.192 169.71 917.346 174.114 921.655 177.097C926.011 180.032 931.527 181.5 938.203 181.5ZM1060.56 196.273C1050.33 196.273 1041.52 193.858 1034.14 189.028C1026.75 184.199 1021.07 177.546 1017.09 169.071C1013.11 160.596 1011.13 150.913 1011.13 140.023C1011.13 128.943 1013.16 119.166 1017.23 110.69C1021.35 102.168 1027.08 95.5152 1034.42 90.733C1041.81 85.9034 1050.42 83.4886 1060.27 83.4886C1067.94 83.4886 1074.86 84.9091 1081.01 87.75C1087.17 90.5909 1092.21 94.5682 1096.14 99.6818C1100.07 104.795 1102.51 110.761 1103.46 117.58H1086.69C1085.42 112.608 1082.57 108.205 1078.17 104.369C1073.82 100.487 1067.94 98.5455 1060.56 98.5455C1054.02 98.5455 1048.29 100.25 1043.37 103.659C1038.49 107.021 1034.68 111.779 1031.94 117.935C1029.24 124.043 1027.89 131.216 1027.89 139.455C1027.89 147.883 1029.21 155.222 1031.86 161.472C1034.56 167.722 1038.35 172.575 1043.23 176.031C1048.15 179.488 1053.93 181.216 1060.56 181.216C1064.91 181.216 1068.87 180.458 1072.42 178.943C1075.97 177.428 1078.98 175.25 1081.44 172.409C1083.9 169.568 1085.65 166.159 1086.69 162.182H1103.46C1102.51 168.621 1100.16 174.421 1096.42 179.582C1092.73 184.696 1087.83 188.768 1081.72 191.798C1075.66 194.781 1068.61 196.273 1060.56 196.273ZM1107.43 64.1705V48.5455H1216.52V64.1705H1170.78V194H1153.17V64.1705H1107.43ZM1269.93 196.273C1260.08 196.273 1251.44 193.929 1244.01 189.241C1236.62 184.554 1230.85 177.996 1226.68 169.568C1222.56 161.14 1220.5 151.292 1220.5 140.023C1220.5 128.659 1222.56 118.74 1226.68 110.264C1230.85 101.789 1236.62 95.2074 1244.01 90.5199C1251.44 85.8324 1260.08 83.4886 1269.93 83.4886C1279.78 83.4886 1288.4 85.8324 1295.78 90.5199C1303.22 95.2074 1309 101.789 1313.11 110.264C1317.28 118.74 1319.36 128.659 1319.36 140.023C1319.36 151.292 1317.28 161.14 1313.11 169.568C1309 177.996 1303.22 184.554 1295.78 189.241C1288.4 193.929 1279.78 196.273 1269.93 196.273ZM1269.93 181.216C1277.41 181.216 1283.57 179.298 1288.4 175.463C1293.23 171.628 1296.8 166.585 1299.12 160.335C1301.44 154.085 1302.6 147.314 1302.6 140.023C1302.6 132.731 1301.44 125.937 1299.12 119.639C1296.8 113.342 1293.23 108.252 1288.4 104.369C1283.57 100.487 1277.41 98.5455 1269.93 98.5455C1262.45 98.5455 1256.3 100.487 1251.47 104.369C1246.64 108.252 1243.06 113.342 1240.74 119.639C1238.42 125.937 1237.26 132.731 1237.26 140.023C1237.26 147.314 1238.42 154.085 1240.74 160.335C1243.06 166.585 1246.64 171.628 1251.47 175.463C1256.3 179.298 1262.45 181.216 1269.93 181.216ZM1390.69 196.273C1380.18 196.273 1371.11 193.953 1363.49 189.312C1355.91 184.625 1350.06 178.091 1345.94 169.71C1341.87 161.282 1339.84 151.481 1339.84 140.307C1339.84 129.133 1341.87 119.284 1345.94 110.761C1350.06 102.191 1355.79 95.5152 1363.13 90.733C1370.52 85.9034 1379.14 83.4886 1388.98 83.4886C1394.67 83.4886 1400.28 84.4356 1405.82 86.3295C1411.36 88.2235 1416.4 91.3011 1420.94 95.5625C1425.49 99.7765 1429.11 105.364 1431.81 112.324C1434.51 119.284 1435.86 127.854 1435.86 138.034V145.136H1351.77V130.648H1418.81C1418.81 124.492 1417.58 119 1415.12 114.17C1412.71 109.341 1409.25 105.529 1404.75 102.736C1400.3 99.9422 1395.04 98.5455 1388.98 98.5455C1382.31 98.5455 1376.53 100.203 1371.65 103.517C1366.83 106.784 1363.11 111.045 1360.5 116.301C1357.9 121.557 1356.6 127.191 1356.6 133.205V142.864C1356.6 151.102 1358.02 158.086 1360.86 163.815C1363.75 169.497 1367.75 173.83 1372.86 176.812C1377.98 179.748 1383.92 181.216 1390.69 181.216C1395.09 181.216 1399.07 180.6 1402.62 179.369C1406.22 178.091 1409.32 176.197 1411.92 173.688C1414.53 171.131 1416.54 167.958 1417.96 164.17L1434.15 168.716C1432.45 174.208 1429.59 179.038 1425.56 183.205C1421.54 187.324 1416.56 190.544 1410.65 192.864C1404.73 195.136 1398.08 196.273 1390.69 196.273Z" fill="black"/>
<path d="M272.614 48.5455V47.5455H271.614V48.5455H272.614ZM293.636 48.5455L294.562 48.1666L294.308 47.5455H293.636V48.5455ZM343.068 169.284L342.143 169.663L342.397 170.284H343.068V169.284ZM344.773 169.284V170.284H345.444L345.698 169.663L344.773 169.284ZM394.205 48.5455V47.5455H393.533L393.279 48.1666L394.205 48.5455ZM415.227 48.5455H416.227V47.5455H415.227V48.5455ZM415.227 194V195H416.227V194H415.227ZM398.75 194H397.75V195H398.75V194ZM398.75 83.4886H399.75V82.4886H398.75V83.4886ZM397.33 83.4886V82.4886H396.66L396.405 83.1082L397.33 83.4886ZM351.875 194V195H352.545L352.8 194.38L351.875 194ZM335.966 194L335.041 194.38L335.296 195H335.966V194ZM290.511 83.4886L291.436 83.1082L291.181 82.4886H290.511V83.4886ZM289.091 83.4886V82.4886H288.091V83.4886H289.091ZM289.091 194V195H290.091V194H289.091ZM272.614 194H271.614V195H272.614V194ZM272.614 49.5455H293.636V47.5455H272.614V49.5455ZM292.711 48.9243L342.143 169.663L343.994 168.905L294.562 48.1666L292.711 48.9243ZM343.068 170.284H344.773V168.284H343.068V170.284ZM345.698 169.663L395.13 48.9243L393.279 48.1666L343.847 168.905L345.698 169.663ZM394.205 49.5455H415.227V47.5455H394.205V49.5455ZM414.227 48.5455V194H416.227V48.5455H414.227ZM415.227 193H398.75V195H415.227V193ZM399.75 194V83.4886H397.75V194H399.75ZM398.75 82.4886H397.33V84.4886H398.75V82.4886ZM396.405 83.1082L350.95 193.62L352.8 194.38L398.254 83.869L396.405 83.1082ZM351.875 193H335.966V195H351.875V193ZM336.891 193.62L291.436 83.1082L289.587 83.869L335.041 194.38L336.891 193.62ZM290.511 82.4886H289.091V84.4886H290.511V82.4886ZM288.091 83.4886V194H290.091V83.4886H288.091ZM289.091 193H272.614V195H289.091V193ZM273.614 194V48.5455H271.614V194H273.614ZM466.808 189.312L466.281 190.163L466.288 190.167L466.808 189.312ZM449.265 169.71L448.364 170.145L448.367 170.151L449.265 169.71ZM449.265 110.761L448.364 110.328L448.363 110.33L449.265 110.761ZM466.452 90.733L466.998 91.5708L467 91.5699L466.452 90.733ZM509.137 86.3295L509.461 85.3833L509.461 85.3833L509.137 86.3295ZM524.265 95.5625L523.581 96.292L523.585 96.2958L524.265 95.5625ZM535.131 112.324L536.064 111.962L536.064 111.962L535.131 112.324ZM539.18 145.136V146.136H540.18V145.136H539.18ZM455.089 145.136H454.089V146.136H455.089V145.136ZM455.089 130.648V129.648H454.089V130.648H455.089ZM522.134 130.648V131.648H523.134V130.648H522.134ZM518.441 114.17L517.547 114.618L517.55 114.625L518.441 114.17ZM508.072 102.736L507.54 103.583L507.544 103.585L508.072 102.736ZM474.975 103.517L475.535 104.345L475.537 104.344L474.975 103.517ZM463.825 116.301L462.929 115.857L462.929 115.857L463.825 116.301ZM464.18 163.815L463.284 164.26L463.288 164.268L464.18 163.815ZM476.183 176.812L475.679 177.676L475.685 177.68L476.183 176.812ZM505.941 179.369L506.269 180.314L506.276 180.312L505.941 179.369ZM515.245 173.688L515.939 174.408L515.946 174.401L515.245 173.688ZM521.282 164.17L521.552 163.208L520.668 162.959L520.346 163.819L521.282 164.17ZM537.475 168.716L538.43 169.012L538.735 168.031L537.745 167.753L537.475 168.716ZM528.881 183.205L529.597 183.903L529.601 183.899L528.881 183.205ZM513.967 192.864L514.325 193.797L514.332 193.795L513.967 192.864ZM494.009 195.273C483.648 195.273 474.768 192.987 467.327 188.458L466.288 190.167C474.093 194.918 483.347 197.273 494.009 197.273V195.273ZM467.334 188.462C459.926 183.878 454.203 177.49 450.162 169.269L448.367 170.151C452.565 178.692 458.538 185.372 466.281 190.163L467.334 188.462ZM450.165 169.275C446.17 161.007 444.157 151.359 444.157 140.307H442.157C442.157 151.603 444.215 161.558 448.365 170.145L450.165 169.275ZM444.157 140.307C444.157 129.255 446.17 119.558 450.167 111.192L448.363 110.33C444.216 119.01 442.157 129.01 442.157 140.307H444.157ZM450.166 111.195C454.213 102.775 459.826 96.2446 466.998 91.5708L465.906 89.8951C458.401 94.7857 452.555 101.608 448.364 110.328L450.166 111.195ZM467 91.5699C474.205 86.8588 482.627 84.4886 492.305 84.4886V82.4886C482.285 82.4886 473.473 84.948 465.905 89.896L467 91.5699ZM492.305 84.4886C497.873 84.4886 503.375 85.4163 508.814 87.2758L509.461 85.3833C503.82 83.4549 498.1 82.4886 492.305 82.4886V84.4886ZM508.814 87.2758C514.211 89.1209 519.132 92.1213 523.581 96.292L524.949 94.833C520.307 90.481 515.143 87.326 509.461 85.3833L508.814 87.2758ZM523.585 96.2958C527.999 100.388 531.544 105.838 534.199 112.685L536.064 111.962C533.321 104.889 529.622 99.1653 524.945 94.8292L523.585 96.2958ZM534.199 112.685C536.84 119.497 538.18 127.936 538.18 138.034H540.18C540.18 127.773 538.82 119.071 536.064 111.962L534.199 112.685ZM538.18 138.034V145.136H540.18V138.034H538.18ZM539.18 144.136H455.089V146.136H539.18V144.136ZM456.089 145.136V130.648H454.089V145.136H456.089ZM455.089 131.648H522.134V129.648H455.089V131.648ZM523.134 130.648C523.134 124.356 521.875 118.704 519.332 113.716L517.55 114.625C519.931 119.296 521.134 124.629 521.134 130.648H523.134ZM519.335 113.723C516.84 108.732 513.258 104.779 508.599 101.886L507.544 103.585C511.882 106.279 515.213 109.95 517.547 114.618L519.335 113.723ZM508.603 101.889C503.97 98.9807 498.524 97.5455 492.305 97.5455V99.5455C498.207 99.5455 503.272 100.904 507.54 103.583L508.603 101.889ZM492.305 97.5455C485.456 97.5455 479.477 99.2484 474.413 102.69L475.537 104.344C480.227 101.157 485.802 99.5455 492.305 99.5455V97.5455ZM474.415 102.689C469.441 106.053 465.609 110.447 462.929 115.857L464.721 116.745C467.248 111.643 470.85 107.515 475.535 104.345L474.415 102.689ZM462.929 115.857C460.254 121.254 458.918 127.041 458.918 133.205H460.918C460.918 127.341 462.187 121.859 464.721 116.745L462.929 115.857ZM458.918 133.205V142.864H460.918V133.205H458.918ZM458.918 142.864C458.918 151.213 460.358 158.358 463.284 164.26L465.076 163.371C462.32 157.814 460.918 150.991 460.918 142.864H458.918ZM463.288 164.268C466.257 170.108 470.386 174.589 475.679 177.676L476.686 175.949C471.752 173.07 467.879 168.886 465.071 163.362L463.288 164.268ZM475.685 177.68C480.971 180.715 487.09 182.216 494.009 182.216V180.216C487.387 180.216 481.621 178.782 476.68 175.945L475.685 177.68ZM494.009 182.216C498.505 182.216 502.596 181.587 506.269 180.314L505.614 178.424C502.184 179.613 498.32 180.216 494.009 180.216V182.216ZM506.276 180.312C510.001 178.988 513.227 177.021 515.939 174.408L514.551 172.967C512.055 175.373 509.078 177.194 505.606 178.427L506.276 180.312ZM515.946 174.401C518.665 171.731 520.752 168.431 522.218 164.522L520.346 163.819C518.971 167.486 517.034 170.53 514.544 172.974L515.946 174.401ZM521.012 165.133L537.205 169.679L537.745 167.753L521.552 163.208L521.012 165.133ZM536.52 168.42C534.862 173.761 532.079 178.455 528.162 182.51L529.601 183.899C533.733 179.621 536.679 174.655 538.43 169.012L536.52 168.42ZM528.166 182.506C524.25 186.514 519.402 189.659 513.602 191.933L514.332 193.795C520.368 191.428 525.463 188.134 529.597 183.903L528.166 182.506ZM513.608 191.93C507.821 194.152 501.293 195.273 494.009 195.273V197.273C501.498 197.273 508.275 196.12 514.325 193.797L513.608 191.93ZM587.83 234.057L588.167 233.115L588.16 233.113L587.83 234.057ZM573.271 225.96L573.925 225.204L573.924 225.204L573.271 225.96ZM564.109 215.307L563.534 214.488L562.772 215.023L563.251 215.821L564.109 215.307ZM577.461 205.932L578.256 205.326L577.673 204.561L576.886 205.113L577.461 205.932ZM583.214 212.75L583.96 212.085L583.954 212.078L583.214 212.75ZM592.731 219.497L593.161 218.594L593.157 218.592L592.731 219.497ZM630.515 216.017L631.112 216.819L631.112 216.819L630.515 216.017ZM639.109 173.83H640.109V172.83H639.109V173.83ZM637.688 173.83V172.83H637.131L636.838 173.303L637.688 173.83ZM632.433 181.216L631.642 180.604L631.64 180.606L632.433 181.216ZM622.773 188.957L623.245 189.839L623.248 189.838L622.773 188.957ZM582.148 186.045L581.635 186.903L581.637 186.905L582.148 186.045ZM565.6 167.864L564.708 168.315L564.71 168.319L565.6 167.864ZM565.458 109.696L566.362 110.125L566.363 110.123L565.458 109.696ZM581.864 90.3778L582.409 91.2168L582.413 91.2142L581.864 90.3778ZM623.058 87.0398L622.563 87.9093L622.575 87.9158L623.058 87.0398ZM632.717 94.9943L631.915 95.5923L631.92 95.5994L631.926 95.6065L632.717 94.9943ZM637.972 102.239L637.134 102.784L637.43 103.239H637.972V102.239ZM639.677 102.239V103.239H640.677V102.239H639.677ZM639.677 84.9091V83.9091H638.677V84.9091H639.677ZM655.87 84.9091H656.87V83.9091H655.87V84.9091ZM649.478 219.994L648.669 219.407L648.663 219.414L649.478 219.994ZM632.433 232.991L632.074 232.058L632.066 232.061L632.433 232.991ZM625.188 172.622L624.635 171.789L624.635 171.789L625.188 172.622ZM635.771 159.341L636.693 159.727L636.693 159.727L635.771 159.341ZM635.842 117.793L636.772 117.426L636.772 117.426L635.842 117.793ZM625.33 103.659L624.738 104.465L624.738 104.465L625.33 103.659ZM590.387 103.943L589.782 103.147L589.778 103.15L590.387 103.943ZM579.805 118.432L578.873 118.068L578.871 118.074L579.805 118.432ZM579.876 158.702L578.949 159.078L578.953 159.087L579.876 158.702ZM590.529 172.338L589.952 173.155L589.961 173.161L590.529 172.338ZM608.711 236.182C600.696 236.182 593.855 235.15 588.167 233.115L587.493 234.998C593.453 237.13 600.533 238.182 608.711 238.182V236.182ZM588.16 233.113C582.432 231.11 577.695 228.469 573.925 225.204L572.616 226.716C576.611 230.175 581.581 232.931 587.5 235.001L588.16 233.113ZM573.924 225.204C570.158 221.949 567.177 218.477 564.966 214.792L563.251 215.821C565.586 219.712 568.713 223.343 572.617 226.717L573.924 225.204ZM564.683 216.125L578.036 206.75L576.886 205.113L563.534 214.488L564.683 216.125ZM576.666 206.538C578.203 208.556 580.141 210.851 582.473 213.422L583.954 212.078C581.647 209.535 579.749 207.285 578.256 205.326L576.666 206.538ZM582.467 213.415C584.898 216.144 588.191 218.466 592.305 220.402L593.157 218.592C589.222 216.741 586.17 214.565 583.96 212.085L582.467 213.415ZM592.3 220.4C596.554 222.428 602.044 223.409 608.711 223.409V221.409C602.215 221.409 597.052 220.449 593.161 218.594L592.3 220.4ZM608.711 223.409C617.682 223.409 625.173 221.237 631.112 216.819L629.918 215.215C624.398 219.32 617.354 221.409 608.711 221.409V223.409ZM631.112 216.819C637.162 212.319 640.109 205.3 640.109 195.989H638.109C638.109 204.859 635.326 211.192 629.918 215.215L631.112 216.819ZM640.109 195.989V173.83H638.109V195.989H640.109ZM639.109 172.83H637.688V174.83H639.109V172.83ZM636.838 173.303C635.633 175.25 633.904 177.682 631.642 180.604L633.223 181.828C635.507 178.879 637.282 176.386 638.538 174.356L636.838 173.303ZM631.64 180.606C629.523 183.354 626.426 185.851 622.299 188.077L623.248 189.838C627.549 187.518 630.891 184.855 633.225 181.826L631.64 180.606ZM622.302 188.075C618.335 190.194 612.884 191.295 605.87 191.295V193.295C613.061 193.295 618.878 192.172 623.245 189.839L622.302 188.075ZM605.87 191.295C597.228 191.295 589.5 189.253 582.66 185.186L581.637 186.905C588.812 191.171 596.898 193.295 605.87 193.295V191.295ZM582.662 185.187C575.879 181.127 570.486 175.213 566.49 167.408L564.71 168.319C568.858 176.423 574.498 182.631 581.635 186.903L582.662 185.187ZM566.492 167.412C562.555 159.631 560.563 150.135 560.563 138.886H558.563C558.563 150.365 560.596 160.187 564.708 168.315L566.492 167.412ZM560.563 138.886C560.563 127.829 562.508 118.251 566.362 110.125L564.555 109.267C560.549 117.713 558.563 127.596 558.563 138.886H560.563ZM566.363 110.123C570.222 101.94 575.573 95.6507 582.409 91.2168L581.32 89.5389C574.141 94.1959 568.554 100.786 564.554 109.269L566.363 110.123ZM582.413 91.2142C589.242 86.7384 597.144 84.4886 606.154 84.4886V82.4886C596.793 82.4886 588.502 84.8317 581.316 89.5415L582.413 91.2142ZM606.154 84.4886C613.161 84.4886 618.603 85.6589 622.564 87.9092L623.552 86.1703C619.179 83.6858 613.352 82.4886 606.154 82.4886V84.4886ZM622.575 87.9158C626.699 90.1864 629.796 92.752 631.915 95.5923L633.518 94.3963C631.186 91.2707 627.844 88.5333 623.54 86.1638L622.575 87.9158ZM631.926 95.6065C634.191 98.5322 635.924 100.923 637.134 102.784L638.811 101.694C637.558 99.7668 635.788 97.3276 633.507 94.3821L631.926 95.6065ZM637.972 103.239H639.677V101.239H637.972V103.239ZM640.677 102.239V84.9091H638.677V102.239H640.677ZM639.677 85.9091H655.87V83.9091H639.677V85.9091ZM654.87 84.9091V197.125H656.87V84.9091H654.87ZM654.87 197.125C654.87 206.351 652.774 213.75 648.669 219.407L650.287 220.582C654.704 214.496 656.87 206.649 656.87 197.125H654.87ZM648.663 219.414C644.57 225.164 639.051 229.378 632.074 232.058L632.791 233.925C640.114 231.112 645.958 226.662 650.293 220.574L648.663 219.414ZM632.066 232.061C625.096 234.803 617.315 236.182 608.711 236.182V238.182C617.531 238.182 625.564 236.768 632.799 233.922L632.066 232.061ZM608.143 178.239C615.022 178.239 620.906 176.663 625.741 173.456L624.635 171.789C620.191 174.737 614.711 176.239 608.143 176.239V178.239ZM625.741 173.456C630.566 170.255 634.212 165.662 636.693 159.727L634.848 158.955C632.5 164.573 629.091 168.834 624.635 171.789L625.741 173.456ZM636.693 159.727C639.171 153.798 640.393 146.748 640.393 138.602H638.393C638.393 146.555 637.199 153.33 634.848 158.955L636.693 159.727ZM640.393 138.602C640.393 130.643 639.194 123.578 636.772 117.426L634.911 118.159C637.224 124.033 638.393 130.841 638.393 138.602H640.393ZM636.772 117.426C634.344 111.26 630.733 106.387 625.922 102.853L624.738 104.465C629.208 107.749 632.604 112.299 634.911 118.159L636.772 117.426ZM625.922 102.853C621.081 99.296 615.134 97.5455 608.143 97.5455V99.5455C614.788 99.5455 620.3 101.204 624.738 104.465L625.922 102.853ZM608.143 97.5455C600.866 97.5455 594.723 99.392 589.782 103.147L590.992 104.739C595.521 101.297 601.215 99.5455 608.143 99.5455V97.5455ZM589.778 103.15C584.932 106.871 581.3 111.855 578.873 118.068L580.736 118.796C583.044 112.887 586.468 108.213 590.996 104.736L589.778 103.15ZM578.871 118.074C576.501 124.264 575.325 131.11 575.325 138.602H577.325C577.325 131.321 578.468 124.721 580.739 118.789L578.871 118.074ZM575.325 138.602C575.325 146.281 576.524 153.113 578.949 159.078L580.802 158.325C578.492 152.643 577.325 146.075 577.325 138.602H575.325ZM578.953 159.087C581.433 165.021 585.097 169.722 589.952 173.155L591.106 171.522C586.586 168.325 583.148 163.936 580.798 158.316L578.953 159.087ZM589.961 173.161C594.896 176.567 600.977 178.239 608.143 178.239V176.239C601.293 176.239 595.631 174.644 591.097 171.515L589.961 173.161ZM699.833 192.651L699.407 193.555L699.414 193.558L699.833 192.651ZM686.41 181.216L685.575 181.767L685.578 181.771L686.41 181.216ZM685.131 147.835L685.976 148.371L685.979 148.366L685.131 147.835ZM708.64 133.631L708.854 134.608L708.861 134.606L708.64 133.631ZM723.768 130.932L723.64 129.94L723.638 129.94L723.768 130.932ZM739.89 129.014L739.993 130.009L740.003 130.008L739.89 129.014ZM748.981 126.67L748.492 125.798L748.482 125.804L748.981 126.67ZM746.14 104.085L745.424 104.784L745.428 104.788L746.14 104.085ZM710.06 103.517L710.671 104.309L710.671 104.309L710.06 103.517ZM700.472 114.739L700.136 115.68L700.995 115.987L701.379 115.16L700.472 114.739ZM684.563 109.057L683.644 108.663L683.225 109.641L684.227 109.999L684.563 109.057ZM695.927 93.5739L696.542 94.3624L696.543 94.3615L695.927 93.5739ZM711.552 85.7614L711.804 86.7291L711.81 86.7276L711.552 85.7614ZM740.387 84.767L740.203 85.75L740.214 85.752L740.387 84.767ZM753.668 89.8097L753.154 90.6672L753.158 90.6696L753.668 89.8097ZM764.393 101.386L763.517 101.869L763.517 101.869L764.393 101.386ZM768.654 194V195H769.654V194H768.654ZM751.893 194H750.893V195H751.893V194ZM751.893 179.227H752.893V178.227H751.893V179.227ZM751.04 179.227V178.227H750.411L750.139 178.795L751.04 179.227ZM745.359 186.827L746.072 187.528L746.072 187.528L745.359 186.827ZM734.776 193.716L734.381 192.797L734.776 193.716ZM737.972 177.594L737.479 176.724L737.475 176.726L737.972 177.594ZM748.342 167.509L747.475 167.01L747.47 167.018L748.342 167.509ZM751.893 139.17H752.893V136.408L751.125 138.53L751.893 139.17ZM747.205 141.514L747.475 142.477L747.487 142.474L747.205 141.514ZM738.967 143.29L739.119 144.278L739.131 144.276L738.967 143.29ZM729.947 144.568L730.061 145.562L730.075 145.56L729.947 144.568ZM722.915 145.42L723.045 146.412L723.046 146.412L722.915 145.42ZM710.7 148.19L711.012 149.14L711.019 149.138L710.7 148.19ZM701.609 153.801L700.874 153.122L700.874 153.123L701.609 153.801ZM704.663 177.097L704.093 177.919L704.104 177.926L704.663 177.097ZM718.654 195.557C711.87 195.557 705.741 194.28 700.253 191.743L699.414 193.558C705.194 196.23 711.613 197.557 718.654 197.557V195.557ZM700.259 191.746C694.782 189.168 690.451 185.475 687.242 180.661L685.578 181.771C688.998 186.9 693.615 190.83 699.407 193.555L700.259 191.746ZM687.244 180.665C684.056 175.837 682.438 169.977 682.438 163.034H680.438C680.438 170.296 682.135 176.557 685.575 181.767L687.244 180.665ZM682.438 163.034C682.438 156.908 683.646 152.045 685.976 148.371L684.287 147.3C681.693 151.39 680.438 156.66 680.438 163.034H682.438ZM685.979 148.366C688.348 144.584 691.51 141.626 695.479 139.482L694.528 137.722C690.258 140.029 686.839 143.226 684.284 147.304L685.979 148.366ZM695.479 139.482C699.509 137.305 703.966 135.678 708.854 134.608L708.426 132.654C703.371 133.761 698.737 135.449 694.528 137.722L695.479 139.482ZM708.861 134.606C713.85 133.476 718.862 132.582 723.897 131.923L723.638 129.94C718.541 130.607 713.468 131.512 708.419 132.655L708.861 134.606ZM723.895 131.924C730.52 131.072 735.885 130.434 739.993 130.009L739.787 128.02C735.656 128.447 730.273 129.087 723.64 129.94L723.895 131.924ZM740.003 130.008C744.203 129.53 747.402 128.732 749.479 127.537L748.482 125.804C746.772 126.787 743.91 127.551 739.777 128.021L740.003 130.008ZM749.47 127.543C751.799 126.236 752.893 123.958 752.893 120.989H750.893C750.893 123.417 750.045 124.927 748.492 125.798L749.47 127.543ZM752.893 120.989V120.42H750.893V120.989H752.893ZM752.893 120.42C752.893 113.228 750.92 107.501 746.851 103.382L745.428 104.788C749.03 108.434 750.893 113.598 750.893 120.42H752.893ZM746.856 103.387C742.812 99.2421 736.753 97.2614 728.881 97.2614V99.2614C736.445 99.2614 741.892 101.163 745.424 104.784L746.856 103.387ZM728.881 97.2614C720.744 97.2614 714.228 99.0422 709.45 102.725L710.671 104.309C714.984 100.984 721.015 99.2614 728.881 99.2614V97.2614ZM709.45 102.725C704.815 106.298 701.497 110.157 699.565 114.318L701.379 115.16C703.141 111.366 706.215 107.744 710.671 104.309L709.45 102.725ZM700.809 113.797L684.9 108.115L684.227 109.999L700.136 115.68L700.809 113.797ZM685.482 109.451C688.27 102.946 691.964 97.9328 696.542 94.3624L695.312 92.7854C690.42 96.6013 686.538 101.91 683.644 108.663L685.482 109.451ZM696.543 94.3615C701.222 90.7016 706.307 88.1609 711.804 86.7291L711.3 84.7937C705.527 86.2974 700.196 88.9651 695.311 92.7862L696.543 94.3615ZM711.81 86.7276C717.413 85.2333 722.914 84.4886 728.313 84.4886V82.4886C722.728 82.4886 717.054 83.2591 711.294 84.7951L711.81 86.7276ZM728.313 84.4886C731.739 84.4886 735.7 84.9057 740.203 85.7499L740.571 83.7842C735.983 82.9239 731.895 82.4886 728.313 82.4886V84.4886ZM740.214 85.752C744.679 86.5344 748.991 88.1692 753.154 90.6671L754.183 88.9522C749.823 86.3364 745.281 84.6095 740.56 83.7821L740.214 85.752ZM753.158 90.6696C757.288 93.1205 760.747 96.8362 763.517 101.869L765.269 100.904C762.357 95.6146 758.666 91.6124 754.179 88.9497L753.158 90.6696ZM763.517 101.869C766.247 106.828 767.654 113.555 767.654 122.125H769.654C769.654 113.365 768.22 106.266 765.269 100.904L763.517 101.869ZM767.654 122.125V194H769.654V122.125H767.654ZM768.654 193H751.893V195H768.654V193ZM752.893 194V179.227H750.893V194H752.893ZM751.893 178.227H751.04V180.227H751.893V178.227ZM750.139 178.795C749.066 181.03 747.251 183.474 744.645 186.126L746.072 187.528C748.77 184.782 750.742 182.16 751.942 179.66L750.139 178.795ZM744.645 186.126C742.105 188.711 738.696 190.941 734.381 192.797L735.171 194.635C739.663 192.702 743.309 190.34 746.072 187.528L744.645 186.126ZM734.381 192.797C730.136 194.623 724.905 195.557 718.654 195.557V197.557C725.093 197.557 730.61 196.597 735.171 194.635L734.381 192.797ZM721.211 182.5C727.969 182.5 733.738 181.172 738.469 178.461L737.475 176.726C733.116 179.223 727.711 180.5 721.211 180.5V182.5ZM738.466 178.464C743.198 175.781 746.794 172.295 749.213 167.999L747.47 167.018C745.25 170.961 741.933 174.199 737.479 176.724L738.466 178.464ZM749.209 168.007C751.659 163.743 752.893 159.24 752.893 154.511H750.893C750.893 158.874 749.759 163.035 747.475 167.01L749.209 168.007ZM752.893 154.511V139.17H750.893V154.511H752.893ZM751.125 138.53C750.894 138.807 750.462 139.141 749.741 139.501C749.03 139.857 748.096 140.21 746.923 140.555L747.487 142.474C748.729 142.108 749.784 141.716 750.635 141.29C751.477 140.869 752.181 140.386 752.661 139.811L751.125 138.53ZM746.936 140.551C744.611 141.202 741.901 141.787 738.802 142.303L739.131 144.276C742.282 143.751 745.065 143.152 747.475 142.477L746.936 140.551ZM738.815 142.301C735.745 142.774 732.746 143.199 729.819 143.576L730.075 145.56C733.019 145.18 736.033 144.753 739.119 144.278L738.815 142.301ZM729.833 143.575C726.942 143.906 724.592 144.191 722.785 144.429L723.046 146.412C724.837 146.176 727.175 145.893 730.061 145.562L729.833 143.575ZM722.786 144.429C718.372 145.005 714.235 145.942 710.38 147.243L711.019 149.138C714.74 147.882 718.747 146.973 723.045 146.412L722.786 144.429ZM710.387 147.24C706.51 148.516 703.326 150.47 700.874 153.122L702.343 154.48C704.531 152.113 707.408 150.326 711.012 149.14L710.387 147.24ZM700.874 153.123C698.388 155.816 697.2 159.444 697.2 163.886H699.2C699.2 159.805 700.284 156.711 702.343 154.479L700.874 153.123ZM697.2 163.886C697.2 169.996 699.482 174.726 704.093 177.919L705.232 176.274C701.226 173.501 699.2 169.425 699.2 163.886H697.2ZM704.104 177.926C708.665 180.999 714.389 182.5 721.211 182.5V180.5C714.68 180.5 709.373 179.065 705.221 176.267L704.104 177.926ZM784.386 64.1705H783.386V65.1705H784.386V64.1705ZM784.386 48.5455V47.5455H783.386V48.5455H784.386ZM893.477 48.5455H894.477V47.5455H893.477V48.5455ZM893.477 64.1705V65.1705H894.477V64.1705H893.477ZM847.738 64.1705V63.1705H846.738V64.1705H847.738ZM847.738 194V195H848.738V194H847.738ZM830.124 194H829.124V195H830.124V194ZM830.124 64.1705H831.124V63.1705H830.124V64.1705ZM785.386 64.1705V48.5455H783.386V64.1705H785.386ZM784.386 49.5455H893.477V47.5455H784.386V49.5455ZM892.477 48.5455V64.1705H894.477V48.5455H892.477ZM893.477 63.1705H847.738V65.1705H893.477V63.1705ZM846.738 64.1705V194H848.738V64.1705H846.738ZM847.738 193H830.124V195H847.738V193ZM831.124 194V64.1705H829.124V194H831.124ZM830.124 63.1705H784.386V65.1705H830.124V63.1705ZM916.825 192.651L916.399 193.555L916.406 193.558L916.825 192.651ZM903.402 181.216L902.568 181.767L902.57 181.771L903.402 181.216ZM902.124 147.835L902.968 148.371L902.971 148.366L902.124 147.835ZM925.632 133.631L925.846 134.608L925.853 134.606L925.632 133.631ZM940.76 130.932L940.632 129.94L940.63 129.94L940.76 130.932ZM956.882 129.014L956.985 130.009L956.995 130.008L956.882 129.014ZM965.973 126.67L965.484 125.798L965.475 125.804L965.973 126.67ZM963.132 104.085L962.416 104.784L962.421 104.788L963.132 104.085ZM927.053 103.517L927.663 104.309L927.663 104.309L927.053 103.517ZM917.464 114.739L917.128 115.68L917.987 115.987L918.371 115.16L917.464 114.739ZM901.555 109.057L900.636 108.663L900.217 109.641L901.219 109.999L901.555 109.057ZM912.919 93.5739L913.534 94.3624L913.535 94.3615L912.919 93.5739ZM928.544 85.7614L928.796 86.7291L928.802 86.7276L928.544 85.7614ZM957.379 84.767L957.195 85.75L957.207 85.752L957.379 84.767ZM970.661 89.8097L970.146 90.6672L970.15 90.6696L970.661 89.8097ZM981.385 101.386L980.509 101.869L980.509 101.869L981.385 101.386ZM985.646 194V195H986.646V194H985.646ZM968.885 194H967.885V195H968.885V194ZM968.885 179.227H969.885V178.227H968.885V179.227ZM968.033 179.227V178.227H967.403L967.131 178.795L968.033 179.227ZM962.351 186.827L963.064 187.528L963.064 187.528L962.351 186.827ZM951.768 193.716L951.373 192.797L951.768 193.716ZM954.964 177.594L954.471 176.724L954.467 176.726L954.964 177.594ZM965.334 167.509L964.467 167.01L964.462 167.018L965.334 167.509ZM968.885 139.17H969.885V136.408L968.117 138.53L968.885 139.17ZM964.197 141.514L964.467 142.477L964.48 142.474L964.197 141.514ZM955.959 143.29L956.111 144.278L956.123 144.276L955.959 143.29ZM946.939 144.568L947.053 145.562L947.067 145.56L946.939 144.568ZM939.908 145.42L940.037 146.412L940.038 146.412L939.908 145.42ZM927.692 148.19L928.004 149.14L928.012 149.138L927.692 148.19ZM918.601 153.801L917.867 153.122L917.866 153.123L918.601 153.801ZM921.655 177.097L921.086 177.919L921.096 177.926L921.655 177.097ZM935.646 195.557C928.862 195.557 922.734 194.28 917.245 191.743L916.406 193.558C922.186 196.23 928.605 197.557 935.646 197.557V195.557ZM917.251 191.746C911.774 189.168 907.443 185.475 904.234 180.661L902.57 181.771C905.99 186.9 910.608 190.83 916.399 193.555L917.251 191.746ZM904.236 180.665C901.048 175.837 899.43 169.977 899.43 163.034H897.43C897.43 170.296 899.127 176.557 902.568 181.767L904.236 180.665ZM899.43 163.034C899.43 156.908 900.638 152.045 902.968 148.371L901.279 147.3C898.685 151.39 897.43 156.66 897.43 163.034H899.43ZM902.971 148.366C905.34 144.584 908.502 141.626 912.471 139.482L911.52 137.722C907.251 140.029 903.831 143.226 901.276 147.304L902.971 148.366ZM912.471 139.482C916.501 137.305 920.958 135.678 925.846 134.608L925.418 132.654C920.363 133.761 915.729 135.449 911.52 137.722L912.471 139.482ZM925.853 134.606C930.842 133.476 935.854 132.582 940.89 131.923L940.63 129.94C935.533 130.607 930.46 131.512 925.411 132.655L925.853 134.606ZM940.887 131.924C947.512 131.072 952.877 130.434 956.985 130.009L956.779 128.02C952.648 128.447 947.265 129.087 940.632 129.94L940.887 131.924ZM956.995 130.008C961.196 129.53 964.394 128.732 966.471 127.537L965.475 125.804C963.764 126.787 960.902 127.551 956.769 128.021L956.995 130.008ZM966.462 127.543C968.791 126.236 969.885 123.958 969.885 120.989H967.885C967.885 123.417 967.038 124.927 965.484 125.798L966.462 127.543ZM969.885 120.989V120.42H967.885V120.989H969.885ZM969.885 120.42C969.885 113.228 967.912 107.501 963.844 103.382L962.421 104.788C966.023 108.434 967.885 113.598 967.885 120.42H969.885ZM963.848 103.387C959.804 99.2421 953.745 97.2614 945.874 97.2614V99.2614C953.437 99.2614 958.884 101.163 962.416 104.784L963.848 103.387ZM945.874 97.2614C937.736 97.2614 931.22 99.0422 926.442 102.725L927.663 104.309C931.976 100.984 938.007 99.2614 945.874 99.2614V97.2614ZM926.442 102.725C921.807 106.298 918.489 110.157 916.557 114.318L918.371 115.16C920.133 111.366 923.207 107.744 927.663 104.309L926.442 102.725ZM917.801 113.797L901.892 108.115L901.219 109.999L917.128 115.68L917.801 113.797ZM902.475 109.451C905.262 102.946 908.957 97.9328 913.534 94.3624L912.304 92.7854C907.412 96.6013 903.53 101.91 900.636 108.663L902.475 109.451ZM913.535 94.3615C918.214 90.7016 923.3 88.1609 928.796 86.7291L928.292 84.7937C922.519 86.2974 917.188 88.9651 912.303 92.7862L913.535 94.3615ZM928.802 86.7276C934.405 85.2333 939.906 84.4886 945.305 84.4886V82.4886C939.72 82.4886 934.046 83.2591 928.286 84.7951L928.802 86.7276ZM945.305 84.4886C948.731 84.4886 952.692 84.9057 957.195 85.7499L957.564 83.7842C952.975 82.9239 948.887 82.4886 945.305 82.4886V84.4886ZM957.207 85.752C961.671 86.5344 965.983 88.1692 970.146 90.6671L971.175 88.9522C966.815 86.3364 962.273 84.6095 957.552 83.7821L957.207 85.752ZM970.15 90.6696C974.28 93.1205 977.739 96.8362 980.509 101.869L982.261 100.904C979.349 95.6146 975.658 91.6124 971.171 88.9497L970.15 90.6696ZM980.509 101.869C983.239 106.828 984.646 113.555 984.646 122.125H986.646C986.646 113.365 985.213 106.266 982.261 100.904L980.509 101.869ZM984.646 122.125V194H986.646V122.125H984.646ZM985.646 193H968.885V195H985.646V193ZM969.885 194V179.227H967.885V194H969.885ZM968.885 178.227H968.033V180.227H968.885V178.227ZM967.131 178.795C966.058 181.03 964.243 183.474 961.638 186.126L963.064 187.528C965.762 184.782 967.734 182.16 968.934 179.66L967.131 178.795ZM961.638 186.126C959.098 188.711 955.688 190.941 951.373 192.797L952.164 194.635C956.656 192.702 960.301 190.34 963.064 187.528L961.638 186.126ZM951.373 192.797C947.128 194.623 941.897 195.557 935.646 195.557V197.557C942.085 197.557 947.602 196.597 952.164 194.635L951.373 192.797ZM938.203 182.5C944.961 182.5 950.73 181.172 955.462 178.461L954.467 176.726C950.108 179.223 944.703 180.5 938.203 180.5V182.5ZM955.458 178.464C960.19 175.781 963.786 172.295 966.205 167.999L964.462 167.018C962.242 170.961 958.925 174.199 954.471 176.724L955.458 178.464ZM966.201 168.007C968.651 163.743 969.885 159.24 969.885 154.511H967.885C967.885 158.874 966.751 163.035 964.467 167.01L966.201 168.007ZM969.885 154.511V139.17H967.885V154.511H969.885ZM968.117 138.53C967.886 138.807 967.454 139.141 966.733 139.501C966.022 139.857 965.088 140.21 963.915 140.555L964.48 142.474C965.721 142.108 966.776 141.716 967.628 141.29C968.469 140.869 969.174 140.386 969.653 139.811L968.117 138.53ZM963.928 140.551C961.603 141.202 958.893 141.787 955.794 142.303L956.123 144.276C959.274 143.751 962.057 143.152 964.467 142.477L963.928 140.551ZM955.807 142.301C952.737 142.774 949.738 143.199 946.811 143.576L947.067 145.56C950.011 145.18 953.026 144.753 956.111 144.278L955.807 142.301ZM946.825 143.575C943.934 143.906 941.584 144.191 939.777 144.429L940.038 146.412C941.83 146.176 944.167 145.893 947.053 145.562L946.825 143.575ZM939.778 144.429C935.364 145.005 931.227 145.942 927.372 147.243L928.012 149.138C931.732 147.882 935.739 146.973 940.037 146.412L939.778 144.429ZM927.379 147.24C923.502 148.516 920.318 150.47 917.867 153.122L919.335 154.48C921.523 152.113 924.4 150.326 928.004 149.14L927.379 147.24ZM917.866 153.123C915.38 155.816 914.192 159.444 914.192 163.886H916.192C916.192 159.805 917.276 156.711 919.336 154.479L917.866 153.123ZM914.192 163.886C914.192 169.996 916.474 174.726 921.086 177.919L922.224 176.274C918.218 173.501 916.192 169.425 916.192 163.886H914.192ZM921.096 177.926C925.657 180.999 931.382 182.5 938.203 182.5V180.5C931.672 180.5 926.365 179.065 922.214 176.267L921.096 177.926ZM1034.14 189.028L1033.59 189.865L1033.59 189.865L1034.14 189.028ZM1017.23 110.69L1016.33 110.255L1016.33 110.257L1017.23 110.69ZM1034.42 90.733L1034.97 91.5708L1034.97 91.5699L1034.42 90.733ZM1096.14 99.6818L1096.93 99.0725L1096.93 99.0725L1096.14 99.6818ZM1103.46 117.58V118.58H1104.6L1104.45 117.442L1103.46 117.58ZM1086.69 117.58L1085.73 117.829L1085.92 118.58H1086.69V117.58ZM1078.17 104.369L1077.51 105.116L1077.51 105.123L1078.17 104.369ZM1043.37 103.659L1043.94 104.482L1043.94 104.481L1043.37 103.659ZM1031.94 117.935L1031.02 117.527L1031.02 117.53L1031.94 117.935ZM1031.86 161.472L1030.94 161.862L1030.95 161.868L1031.86 161.472ZM1043.23 176.031L1042.65 176.847L1042.65 176.85L1043.23 176.031ZM1072.42 178.943L1072.03 178.023L1072.03 178.023L1072.42 178.943ZM1081.44 172.409L1082.19 173.064L1082.19 173.064L1081.44 172.409ZM1086.69 162.182V161.182H1085.92L1085.73 161.928L1086.69 162.182ZM1103.46 162.182L1104.44 162.327L1104.61 161.182H1103.46V162.182ZM1096.42 179.582L1095.61 178.996L1095.61 178.997L1096.42 179.582ZM1081.72 191.798L1082.16 192.696L1082.17 192.694L1081.72 191.798ZM1060.56 195.273C1050.49 195.273 1041.88 192.899 1034.68 188.191L1033.59 189.865C1041.16 194.817 1050.17 197.273 1060.56 197.273V195.273ZM1034.68 188.191C1027.46 183.47 1021.9 176.964 1018 168.646L1016.19 169.496C1020.24 178.128 1026.04 184.928 1033.59 189.865L1034.68 188.191ZM1018 168.646C1014.09 160.324 1012.13 150.79 1012.13 140.023H1010.13C1010.13 151.036 1012.14 160.868 1016.19 169.496L1018 168.646ZM1012.13 140.023C1012.13 129.067 1014.14 119.442 1018.14 111.123L1016.33 110.257C1012.18 118.89 1010.13 128.82 1010.13 140.023H1012.13ZM1018.13 111.126C1022.18 102.753 1027.79 96.2455 1034.97 91.5708L1033.88 89.8951C1026.37 94.7848 1020.53 101.582 1016.33 110.255L1018.13 111.126ZM1034.97 91.5699C1042.17 86.8588 1050.6 84.4886 1060.27 84.4886V82.4886C1050.25 82.4886 1041.44 84.948 1033.87 89.896L1034.97 91.5699ZM1060.27 84.4886C1067.82 84.4886 1074.59 85.8852 1080.59 88.658L1081.43 86.842C1075.13 83.933 1068.07 82.4886 1060.27 82.4886V84.4886ZM1080.59 88.658C1086.61 91.4346 1091.52 95.3125 1095.35 100.291L1096.93 99.0725C1092.9 93.8239 1087.73 89.7472 1081.43 86.842L1080.59 88.658ZM1095.35 100.291C1099.16 105.258 1101.54 111.059 1102.46 117.717L1104.45 117.442C1103.48 110.464 1100.98 104.333 1096.93 99.0725L1095.35 100.291ZM1103.46 116.58H1086.69V118.58H1103.46V116.58ZM1087.66 117.331C1086.33 112.137 1083.36 107.564 1078.83 103.615L1077.51 105.123C1081.79 108.845 1084.5 113.079 1085.73 117.829L1087.66 117.331ZM1078.84 103.623C1074.25 99.5371 1068.12 97.5455 1060.56 97.5455V99.5455C1067.77 99.5455 1073.38 101.436 1077.51 105.116L1078.84 103.623ZM1060.56 97.5455C1053.84 97.5455 1047.91 99.3015 1042.8 102.837L1043.94 104.481C1048.68 101.199 1054.21 99.5455 1060.56 99.5455V97.5455ZM1042.8 102.836C1037.75 106.316 1033.83 111.228 1031.02 117.527L1032.85 118.342C1035.53 112.331 1039.23 107.726 1043.94 104.482L1042.8 102.836ZM1031.02 117.53C1028.25 123.792 1026.89 131.108 1026.89 139.455H1028.89C1028.89 131.323 1030.22 124.293 1032.85 118.339L1031.02 117.53ZM1026.89 139.455C1026.89 147.985 1028.23 155.463 1030.94 161.862L1032.78 161.081C1030.2 154.981 1028.89 147.78 1028.89 139.455H1026.89ZM1030.95 161.868C1033.71 168.262 1037.6 173.271 1042.65 176.847L1043.81 175.215C1039.1 171.879 1035.42 167.181 1032.78 161.075L1030.95 161.868ZM1042.65 176.85C1047.76 180.436 1053.75 182.216 1060.56 182.216V180.216C1054.11 180.216 1048.54 178.539 1043.8 175.213L1042.65 176.85ZM1060.56 182.216C1065.03 182.216 1069.12 181.437 1072.81 179.863L1072.03 178.023C1068.61 179.479 1064.8 180.216 1060.56 180.216V182.216ZM1072.81 179.863C1076.5 178.29 1079.63 176.023 1082.19 173.064L1080.68 171.754C1078.32 174.477 1075.44 176.566 1072.03 178.023L1072.81 179.863ZM1082.19 173.064C1084.77 170.097 1086.58 166.547 1087.66 162.435L1085.73 161.928C1084.72 165.772 1083.04 169.04 1080.68 171.754L1082.19 173.064ZM1086.69 163.182H1103.46V161.182H1086.69V163.182ZM1102.47 162.036C1101.54 168.32 1099.26 173.968 1095.61 178.996L1097.23 180.169C1101.07 174.875 1103.47 168.923 1104.44 162.327L1102.47 162.036ZM1095.61 178.997C1092.02 183.968 1087.25 187.938 1081.28 190.902L1082.17 192.694C1088.41 189.598 1093.44 185.424 1097.23 180.168L1095.61 178.997ZM1081.28 190.901C1075.38 193.805 1068.48 195.273 1060.56 195.273V197.273C1068.73 197.273 1075.94 195.758 1082.16 192.696L1081.28 190.901ZM1107.43 64.1705H1106.43V65.1705H1107.43V64.1705ZM1107.43 48.5455V47.5455H1106.43V48.5455H1107.43ZM1216.52 48.5455H1217.52V47.5455H1216.52V48.5455ZM1216.52 64.1705V65.1705H1217.52V64.1705H1216.52ZM1170.78 64.1705V63.1705H1169.78V64.1705H1170.78ZM1170.78 194V195H1171.78V194H1170.78ZM1153.17 194H1152.17V195H1153.17V194ZM1153.17 64.1705H1154.17V63.1705H1153.17V64.1705ZM1108.43 64.1705V48.5455H1106.43V64.1705H1108.43ZM1107.43 49.5455H1216.52V47.5455H1107.43V49.5455ZM1215.52 48.5455V64.1705H1217.52V48.5455H1215.52ZM1216.52 63.1705H1170.78V65.1705H1216.52V63.1705ZM1169.78 64.1705V194H1171.78V64.1705H1169.78ZM1170.78 193H1153.17V195H1170.78V193ZM1154.17 194V64.1705H1152.17V194H1154.17ZM1153.17 63.1705H1107.43V65.1705H1153.17V63.1705ZM1244.01 189.241L1243.47 190.086L1243.48 190.087L1244.01 189.241ZM1226.68 169.568L1225.78 170.007L1225.78 170.011L1226.68 169.568ZM1226.68 110.264L1225.78 109.823L1225.78 109.827L1226.68 110.264ZM1244.01 90.5199L1243.48 89.674L1243.47 89.6756L1244.01 90.5199ZM1295.78 90.5199L1295.25 91.3642L1295.25 91.3658L1295.78 90.5199ZM1313.11 110.264L1312.21 110.701L1312.22 110.705L1313.11 110.264ZM1313.11 169.568L1312.22 169.125L1312.22 169.129L1313.11 169.568ZM1295.78 189.241L1295.25 188.396L1295.25 188.397L1295.78 189.241ZM1288.4 175.463L1287.78 174.68L1287.78 174.68L1288.4 175.463ZM1299.12 160.335L1300.06 160.683L1300.06 160.683L1299.12 160.335ZM1299.12 119.639L1300.06 119.293L1300.06 119.293L1299.12 119.639ZM1288.4 104.369L1289.02 103.59L1289.02 103.59L1288.4 104.369ZM1251.47 104.369L1250.84 103.59L1250.84 103.59L1251.47 104.369ZM1240.74 119.639L1239.8 119.293L1239.8 119.293L1240.74 119.639ZM1240.74 160.335L1239.8 160.683L1239.8 160.683L1240.74 160.335ZM1251.47 175.463L1252.09 174.68L1252.09 174.68L1251.47 175.463ZM1269.93 195.273C1260.25 195.273 1251.8 192.971 1244.54 188.396L1243.48 190.087C1251.09 194.887 1259.92 197.273 1269.93 197.273V195.273ZM1244.55 188.397C1237.32 183.815 1231.67 177.402 1227.58 169.125L1225.78 170.011C1230.02 178.591 1235.92 185.293 1243.47 190.086L1244.55 188.397ZM1227.58 169.129C1223.54 160.863 1221.5 151.17 1221.5 140.023H1219.5C1219.5 151.414 1221.58 161.418 1225.78 170.007L1227.58 169.129ZM1221.5 140.023C1221.5 128.78 1223.54 119.015 1227.58 110.701L1225.78 109.827C1221.58 118.464 1219.5 128.538 1219.5 140.023H1221.5ZM1227.58 110.705C1231.67 102.381 1237.33 95.9453 1244.55 91.3642L1243.47 89.6756C1235.92 94.4695 1230.02 101.196 1225.78 109.823L1227.58 110.705ZM1244.54 91.3658C1251.8 86.7908 1260.25 84.4886 1269.93 84.4886V82.4886C1259.92 82.4886 1251.09 84.874 1243.48 89.674L1244.54 91.3658ZM1269.93 84.4886C1279.62 84.4886 1288.04 86.7908 1295.25 91.3642L1296.32 89.6756C1288.75 84.874 1279.95 82.4886 1269.93 82.4886V84.4886ZM1295.25 91.3658C1302.52 95.9466 1308.17 102.381 1312.21 110.701L1314.01 109.827C1309.82 101.197 1303.92 94.4682 1296.32 89.674L1295.25 91.3658ZM1312.22 110.705C1316.3 119.018 1318.36 128.781 1318.36 140.023H1320.36C1320.36 128.537 1318.26 118.461 1314.01 109.823L1312.22 110.705ZM1318.36 140.023C1318.36 151.168 1316.3 160.86 1312.22 169.125L1314.01 170.011C1318.26 161.421 1320.36 151.415 1320.36 140.023H1318.36ZM1312.22 169.129C1308.17 177.402 1302.52 183.814 1295.25 188.396L1296.32 190.087C1303.92 185.294 1309.82 178.59 1314.01 170.007L1312.22 169.129ZM1295.25 188.397C1288.04 192.971 1279.62 195.273 1269.93 195.273V197.273C1279.95 197.273 1288.75 194.887 1296.32 190.086L1295.25 188.397ZM1269.93 182.216C1277.59 182.216 1283.98 180.25 1289.02 176.246L1287.78 174.68C1283.16 178.347 1277.24 180.216 1269.93 180.216V182.216ZM1289.02 176.246C1294 172.288 1297.68 167.09 1300.06 160.683L1298.19 159.987C1295.92 166.08 1292.45 170.967 1287.78 174.68L1289.02 176.246ZM1300.06 160.683C1302.43 154.312 1303.6 147.422 1303.6 140.023H1301.6C1301.6 147.207 1300.46 153.859 1298.19 159.987L1300.06 160.683ZM1303.6 140.023C1303.6 132.623 1302.43 125.711 1300.06 119.293L1298.18 119.985C1300.46 126.162 1301.6 132.839 1301.6 140.023H1303.6ZM1300.06 119.293C1297.68 112.841 1294.01 107.596 1289.02 103.59L1287.77 105.149C1292.45 108.908 1295.92 113.843 1298.18 119.985L1300.06 119.293ZM1289.02 103.59C1283.98 99.5367 1277.59 97.5455 1269.93 97.5455V99.5455C1277.23 99.5455 1283.15 101.437 1287.77 105.149L1289.02 103.59ZM1269.93 97.5455C1262.27 97.5455 1255.88 99.5367 1250.84 103.59L1252.09 105.149C1256.71 101.437 1262.63 99.5455 1269.93 99.5455V97.5455ZM1250.84 103.59C1245.86 107.596 1242.18 112.841 1239.8 119.293L1241.68 119.985C1243.94 113.843 1247.42 108.908 1252.09 105.149L1250.84 103.59ZM1239.8 119.293C1237.44 125.711 1236.26 132.623 1236.26 140.023H1238.26C1238.26 132.839 1239.4 126.162 1241.68 119.985L1239.8 119.293ZM1236.26 140.023C1236.26 147.422 1237.44 154.312 1239.8 160.683L1241.68 159.987C1239.4 153.859 1238.26 147.207 1238.26 140.023H1236.26ZM1239.8 160.683C1242.18 167.09 1245.86 172.288 1250.84 176.246L1252.09 174.68C1247.41 170.967 1243.94 166.08 1241.68 159.987L1239.8 160.683ZM1250.84 176.246C1255.89 180.25 1262.28 182.216 1269.93 182.216V180.216C1262.63 180.216 1256.71 178.347 1252.09 174.68L1250.84 176.246ZM1363.49 189.312L1362.96 190.163L1362.97 190.167L1363.49 189.312ZM1345.94 169.71L1345.04 170.145L1345.05 170.151L1345.94 169.71ZM1345.94 110.761L1345.04 110.328L1345.04 110.33L1345.94 110.761ZM1363.13 90.733L1363.68 91.5708L1363.68 91.5699L1363.13 90.733ZM1405.82 86.3295L1406.14 85.3833L1406.14 85.3833L1405.82 86.3295ZM1420.94 95.5625L1420.26 96.292L1420.26 96.2958L1420.94 95.5625ZM1431.81 112.324L1432.74 111.962L1432.74 111.962L1431.81 112.324ZM1435.86 145.136V146.136H1436.86V145.136H1435.86ZM1351.77 145.136H1350.77V146.136H1351.77V145.136ZM1351.77 130.648V129.648H1350.77V130.648H1351.77ZM1418.81 130.648V131.648H1419.81V130.648H1418.81ZM1415.12 114.17L1414.23 114.618L1414.23 114.625L1415.12 114.17ZM1404.75 102.736L1404.22 103.583L1404.22 103.585L1404.75 102.736ZM1371.65 103.517L1372.22 104.345L1372.22 104.344L1371.65 103.517ZM1360.5 116.301L1359.61 115.857L1359.61 115.857L1360.5 116.301ZM1360.86 163.815L1359.96 164.26L1359.97 164.268L1360.86 163.815ZM1372.86 176.812L1372.36 177.676L1372.36 177.68L1372.86 176.812ZM1402.62 179.369L1402.95 180.314L1402.96 180.312L1402.62 179.369ZM1411.92 173.688L1412.62 174.408L1412.63 174.401L1411.92 173.688ZM1417.96 164.17L1418.23 163.208L1417.35 162.959L1417.03 163.819L1417.96 164.17ZM1434.15 168.716L1435.11 169.012L1435.41 168.031L1434.43 167.753L1434.15 168.716ZM1425.56 183.205L1426.28 183.903L1426.28 183.899L1425.56 183.205ZM1410.65 192.864L1411 193.797L1411.01 193.795L1410.65 192.864ZM1390.69 195.273C1380.33 195.273 1371.45 192.987 1364.01 188.458L1362.97 190.167C1370.77 194.918 1380.03 197.273 1390.69 197.273V195.273ZM1364.01 188.462C1356.61 183.878 1350.88 177.49 1346.84 169.269L1345.05 170.151C1349.25 178.692 1355.22 185.372 1362.96 190.163L1364.01 188.462ZM1346.85 169.275C1342.85 161.007 1340.84 151.359 1340.84 140.307H1338.84C1338.84 151.603 1340.9 161.558 1345.04 170.145L1346.85 169.275ZM1340.84 140.307C1340.84 129.255 1342.85 119.558 1346.85 111.192L1345.04 110.33C1340.9 119.01 1338.84 129.01 1338.84 140.307H1340.84ZM1346.85 111.195C1350.89 102.775 1356.51 96.2446 1363.68 91.5708L1362.59 89.8951C1355.08 94.7857 1349.23 101.608 1345.04 110.328L1346.85 111.195ZM1363.68 91.5699C1370.88 86.8588 1379.31 84.4886 1388.98 84.4886V82.4886C1378.96 82.4886 1370.15 84.948 1362.58 89.896L1363.68 91.5699ZM1388.98 84.4886C1394.55 84.4886 1400.05 85.4163 1405.49 87.2758L1406.14 85.3833C1400.5 83.4549 1394.78 82.4886 1388.98 82.4886V84.4886ZM1405.49 87.2758C1410.89 89.1209 1415.81 92.1213 1420.26 96.292L1421.63 94.833C1416.99 90.481 1411.82 87.326 1406.14 85.3833L1405.49 87.2758ZM1420.26 96.2958C1424.68 100.388 1428.22 105.838 1430.88 112.685L1432.74 111.962C1430 104.889 1426.3 99.1653 1421.62 94.8292L1420.26 96.2958ZM1430.88 112.685C1433.52 119.497 1434.86 127.936 1434.86 138.034H1436.86C1436.86 127.773 1435.5 119.071 1432.74 111.962L1430.88 112.685ZM1434.86 138.034V145.136H1436.86V138.034H1434.86ZM1435.86 144.136H1351.77V146.136H1435.86V144.136ZM1352.77 145.136V130.648H1350.77V145.136H1352.77ZM1351.77 131.648H1418.81V129.648H1351.77V131.648ZM1419.81 130.648C1419.81 124.356 1418.55 118.704 1416.01 113.716L1414.23 114.625C1416.61 119.296 1417.81 124.629 1417.81 130.648H1419.81ZM1416.02 113.723C1413.52 108.732 1409.94 104.779 1405.28 101.886L1404.22 103.585C1408.56 106.279 1411.89 109.95 1414.23 114.618L1416.02 113.723ZM1405.28 101.889C1400.65 98.9807 1395.2 97.5455 1388.98 97.5455V99.5455C1394.89 99.5455 1399.95 100.904 1404.22 103.583L1405.28 101.889ZM1388.98 97.5455C1382.14 97.5455 1376.16 99.2484 1371.09 102.69L1372.22 104.344C1376.91 101.157 1382.48 99.5455 1388.98 99.5455V97.5455ZM1371.09 102.689C1366.12 106.053 1362.29 110.447 1359.61 115.857L1361.4 116.745C1363.93 111.643 1367.53 107.515 1372.22 104.345L1371.09 102.689ZM1359.61 115.857C1356.93 121.254 1355.6 127.041 1355.6 133.205H1357.6C1357.6 127.341 1358.87 121.859 1361.4 116.745L1359.61 115.857ZM1355.6 133.205V142.864H1357.6V133.205H1355.6ZM1355.6 142.864C1355.6 151.213 1357.04 158.358 1359.96 164.26L1361.76 163.371C1359 157.814 1357.6 150.991 1357.6 142.864H1355.6ZM1359.97 164.268C1362.94 170.108 1367.07 174.589 1372.36 177.676L1373.37 175.949C1368.43 173.07 1364.56 168.886 1361.75 163.362L1359.97 164.268ZM1372.36 177.68C1377.65 180.715 1383.77 182.216 1390.69 182.216V180.216C1384.07 180.216 1378.3 178.782 1373.36 175.945L1372.36 177.68ZM1390.69 182.216C1395.19 182.216 1399.28 181.587 1402.95 180.314L1402.29 178.424C1398.86 179.613 1395 180.216 1390.69 180.216V182.216ZM1402.96 180.312C1406.68 178.988 1409.91 177.021 1412.62 174.408L1411.23 172.967C1408.73 175.373 1405.76 177.194 1402.29 178.427L1402.96 180.312ZM1412.63 174.401C1415.34 171.731 1417.43 168.431 1418.9 164.522L1417.03 163.819C1415.65 167.486 1413.71 170.53 1411.22 172.974L1412.63 174.401ZM1417.69 165.133L1433.88 169.679L1434.43 167.753L1418.23 163.208L1417.69 165.133ZM1433.2 168.42C1431.54 173.761 1428.76 178.455 1424.84 182.51L1426.28 183.899C1430.41 179.621 1433.36 174.655 1435.11 169.012L1433.2 168.42ZM1424.85 182.506C1420.93 186.514 1416.08 189.659 1410.28 191.933L1411.01 193.795C1417.05 191.428 1422.14 188.134 1426.28 183.903L1424.85 182.506ZM1410.29 191.93C1404.5 194.152 1397.97 195.273 1390.69 195.273V197.273C1398.18 197.273 1404.95 196.12 1411 193.797L1410.29 191.93Z" fill="black" mask="url(#path-9-inside-1_2_54)"/>
</svg>
